<svg id="039eaf1e-e907-414f-994a-63a62dd0cbbc" data-name="Layer 1" xmlns="http://www.w3.org/2000/svg" width="160" height="148.4" viewBox="0 0 160 148.4"><defs><style>.\31 244d523-d37b-4f53-b53c-4432298d2e5e{fill:#575757;}</style></defs><title>icon_news</title><path class="1244d523-d37b-4f53-b53c-4432298d2e5e" d="M160,148.4H0V0H160V148.4ZM7.6,140.8H152.4V7.6H7.6V140.8Z"/><path class="1244d523-d37b-4f53-b53c-4432298d2e5e" d="M16.74,17.6h9.1L38.77,38.73h0.09V17.6h6.7V48H36.79L23.52,26.36H23.44V48h-6.7V17.6Z"/><path class="1244d523-d37b-4f53-b53c-4432298d2e5e" d="M52,17.6H72.65v6.18h-14v5.67H71.88v6.18H58.69v6.18H73.42V48H52V17.6Z"/><path class="1244d523-d37b-4f53-b53c-4432298d2e5e" d="M75.61,17.6h7.3l4.85,19.5h0.09l6.36-19.5h6.23l6.31,20h0.08l5.11-20h6.79L109.84,48h-6l-6.7-21H97.09l-6.7,21H84.63Z"/><path class="1244d523-d37b-4f53-b53c-4432298d2e5e" d="M136.77,25a4.78,4.78,0,0,0-2.21-1.52,7.93,7.93,0,0,0-2.64-.49,6.94,6.94,0,0,0-1.5.17,5.8,5.8,0,0,0-1.46.54,3.19,3.19,0,0,0-1.12,1,2.68,2.68,0,0,0,.6,3.56A9.74,9.74,0,0,0,131,29.5q1.57,0.51,3.37,1A13.9,13.9,0,0,1,137.78,32a8,8,0,0,1,2.6,2.53,7.73,7.73,0,0,1,1,4.25,9.78,9.78,0,0,1-.94,4.42,9,9,0,0,1-2.56,3.14,10.87,10.87,0,0,1-3.74,1.85,17.14,17.14,0,0,1-10-.3A13.76,13.76,0,0,1,119.46,45l4.77-5.24a6.94,6.94,0,0,0,2.6,2.13,7.3,7.3,0,0,0,4.9.56,5.4,5.4,0,0,0,1.5-.58,3.24,3.24,0,0,0,1.07-1,2.47,2.47,0,0,0,.41-1.42,2.57,2.57,0,0,0-1.05-2.17A9.73,9.73,0,0,0,131,35.9q-1.59-.56-3.44-1.12a15.38,15.38,0,0,1-3.44-1.5,8.27,8.27,0,0,1-2.64-2.49,7.13,7.13,0,0,1-1.05-4.08,9.14,9.14,0,0,1,1-4.29A9.34,9.34,0,0,1,124,19.32a11.21,11.21,0,0,1,3.71-1.87,15.22,15.22,0,0,1,4.34-.62,17.08,17.08,0,0,1,5,.73A11.5,11.5,0,0,1,141.36,20Z"/><rect class="1244d523-d37b-4f53-b53c-4432298d2e5e" x="80" y="56.65" width="64.14" height="41.11"/><rect class="1244d523-d37b-4f53-b53c-4432298d2e5e" x="15.52" y="105.76" width="128.3" height="8.8"/><rect class="1244d523-d37b-4f53-b53c-4432298d2e5e" x="15.84" y="122.05" width="128.3" height="8.8"/><rect class="1244d523-d37b-4f53-b53c-4432298d2e5e" x="15.99" y="88.96" width="56.03" height="8.8"/><rect class="1244d523-d37b-4f53-b53c-4432298d2e5e" x="15.99" y="72.16" width="56.03" height="8.8"/><rect class="1244d523-d37b-4f53-b53c-4432298d2e5e" x="15.52" y="56.65" width="56.5" height="8.34"/></svg>