<svg id="1d5f9c83-ba85-4019-8268-b399032df493" data-name="Layer 1" xmlns="http://www.w3.org/2000/svg" viewBox="0 0 160 148"><defs><style>.b7d6d6a8-a6e5-41d3-a63b-985d837e70b8{fill:#575757;}</style></defs><title>icon_calendar</title><rect class="b7d6d6a8-a6e5-41d3-a63b-985d837e70b8" x="114" y="66" width="22" height="14"/><rect class="b7d6d6a8-a6e5-41d3-a63b-985d837e70b8" x="84" y="66" width="22" height="14"/><rect class="b7d6d6a8-a6e5-41d3-a63b-985d837e70b8" x="24" y="88" width="22" height="14"/><rect class="b7d6d6a8-a6e5-41d3-a63b-985d837e70b8" x="114" y="88" width="22" height="14"/><rect class="b7d6d6a8-a6e5-41d3-a63b-985d837e70b8" x="54" y="88" width="22" height="14"/><rect class="b7d6d6a8-a6e5-41d3-a63b-985d837e70b8" x="84" y="88" width="22" height="14"/><rect class="b7d6d6a8-a6e5-41d3-a63b-985d837e70b8" x="24" y="110" width="22" height="14"/><rect class="b7d6d6a8-a6e5-41d3-a63b-985d837e70b8" x="54" y="110" width="22" height="14"/><rect class="b7d6d6a8-a6e5-41d3-a63b-985d837e70b8" x="84" y="110" width="22" height="14"/><rect class="b7d6d6a8-a6e5-41d3-a63b-985d837e70b8" x="37" width="18" height="36"/><rect class="b7d6d6a8-a6e5-41d3-a63b-985d837e70b8" x="105" width="18" height="36"/><path class="b7d6d6a8-a6e5-41d3-a63b-985d837e70b8" d="M148,18H128V36a5,5,0,0,1-5,5H105a5.07,5.07,0,0,1-5-5V18H60V36a5,5,0,0,1-5,5H37a5.07,5.07,0,0,1-5-5V18H12A12,12,0,0,0,0,30V136a12,12,0,0,0,12,12H148a12,12,0,0,0,12-12V30A12,12,0,0,0,148,18Zm0,118H12V54H148v82Z"/></svg>