<svg id="bf5681f3-e646-4ab8-b6dd-27d3f821d190" data-name="Layer 1" xmlns="http://www.w3.org/2000/svg" width="40" height="33.8" viewBox="0 0 40 33.8"><defs><style>.\39 dd999ec-1d1c-4033-894f-319bf67d0859{fill:#fff;}</style></defs><title>icon_reddit</title><path class="9dd999ec-1d1c-4033-894f-319bf67d0859" d="M40,19.87a3.93,3.93,0,0,0-7-2.46A22.34,22.34,0,0,0,21.37,13.7l2.55-7.89c3.81,0.9,6,1.4,7.18,1.68a3.09,3.09,0,1,0,.51-2.61c-1.22-.28-3.47-0.8-7.34-1.71a2.4,2.4,0,0,0-2.81,1.58l-2.89,9A22.5,22.5,0,0,0,6.93,17.34,3.93,3.93,0,0,0,0,19.88a3.93,3.93,0,0,0,2.33,3.59,8,8,0,0,0-.22,1.81c0,6.41,8,11.61,17.79,11.61S37.7,31.7,37.7,25.29a8,8,0,0,0-.2-1.74A4,4,0,0,0,40,19.87Z" transform="translate(0 -3.1)"/></svg>