<svg id="fc1775ab-08da-4772-bf09-e7ca6d6b9ff1" data-name="Layer 1" xmlns="http://www.w3.org/2000/svg" viewBox="0 0 200 187.99"><defs><style>.\30 64f009d-4f51-4c39-8006-cf10614edd62{fill:#575757;}</style></defs><title>members</title><path class="064f009d-4f51-4c39-8006-cf10614edd62" d="M361.52,307.21C355.43,295,346,286.63,319.8,284.5c9.49-10.85,17-28,17-42.09,0-23.21-16.71-42.36-36.55-42.4s-36.55,18.7-36.55,41.9c0,13.9,7.34,30.1,16.67,41-26,2.26-35.41,12.23-41.48,24.39-7.41,14.83,0,80.75,0,80.75H361.52S368.94,322,361.52,307.21Z" transform="translate(-200 -200.01)"/><path class="064f009d-4f51-4c39-8006-cf10614edd62" d="M397.31,305.67c-5-9.93-12.65-15.52-33.88-17.22,7.65-8.87,13.69-22.21,13.69-33.6,0-19-13.65-34.33-29.87-34.37a25.63,25.63,0,0,0-4.13.36,57.76,57.76,0,0,1,4.14,21.56c0,10.73-3.6,23.2-9.55,34.29,16.21,4,26.29,12.06,33.16,25.79,2.52,5,5.66,15.77,3.87,51.08-0.28,5.46-.63,10.44-1,15.44h23.57S403.37,317.79,397.31,305.67Z" transform="translate(-200 -200.01)"/><path class="064f009d-4f51-4c39-8006-cf10614edd62" d="M225.69,353.58c-1.79-35.3,1.35-46.06,3.87-51.09,7.13-14.27,17.42-22.89,33.08-27.2-5.89-10.89-9.38-22.94-9.38-33.44a57.13,57.13,0,0,1,3.95-21,25.66,25.66,0,0,0-4.46-.4c-16.21,0-29.87,15.41-29.87,34.38,0,11.39,6,24.74,13.69,33.61-21.23,1.7-28.92,7.27-33.88,17.2-6.06,12.12,0,63.33,0,63.33h24C226.32,364,226,359,225.69,353.58Z" transform="translate(-200 -200.01)"/></svg>