<svg id="e4da59be-cadf-47b7-a0e2-16249a356257" data-name="svg3039" xmlns="http://www.w3.org/2000/svg" viewBox="0 0 318.93 318.47"><defs><style>.\34 15b8d68-ee93-4e7b-a2fc-958b7161f286{fill:#575757;}</style></defs><title>icon_store</title><path id="9cd25875-7983-45d7-b2ba-beb839057035" data-name="path3049" class="415b8d68-ee93-4e7b-a2fc-958b7161f286" d="M89.64,320.49a10.06,10.06,0,0,1-2.11-3.4c-0.38-1.2,4.15-13.39,12.36-33.24,7.13-17.24,12.85-31.46,12.71-31.59a56.44,56.44,0,0,0-7.67.7c-25,3.2-57.22-8.94-76-28.6-8-8.44-9.81-10.94-14.8-21-4.88-9.81-7.73-19.25-9.65-32C2.79,160,2.54,136.5,4,127c2.4-15.23,10.9-36.61,20.6-51.79C44.7,43.79,76.37,19.14,109.7,9c7.76-2.36,25.58-6.08,26.19-5.47,0.22,0.22-4.4,15.5-10.28,34s-10.45,33.94-10.16,34.4S123.63,73.1,133,73.5c12.69,0.54,17,1.05,17,2,0,0.7-1.81,9.74-4,20.08s-3.89,19.18-3.75,19.63,9.84-11.43,21.54-26.4c14.46-18.51,20.86-27.43,20-27.88-0.7-.37-7.57-1.48-15.27-2.46s-14.41-2.16-14.92-2.6C152.81,55.19,174.74,7.26,177,4.7s50.88,8.37,67.33,14.92c34.81,13.86,58.19,34.2,69,60.07,7.81,18.62,10.5,38.78,7.24,54.31-4.72,22.49-21.11,41.29-43.48,49.87-12.65,4.85-24.47,6.33-52.64,6.61-15.37.15-26.39,0.69-28.61,1.39-7.49,2.38-11.52,6.46-16.49,16.69s-7.21,12.22-11.91,10.43c-4.2-1.6-4.94-5.46-2.4-12.46,4.62-12.71,13.51-22.74,23.45-26.46,7.73-2.89,19.81-4.11,33.76-3.42,14.45,0.72,33.63-.93,43.92-3.78,20.19-5.59,35.32-20.45,40.3-39.58,3.53-13.54.6-35.17-6.87-50.79-14.84-31-51.49-52.49-106-62.07-4.42-.78-8.16-1.28-8.32-1.12s-3,5.89-6.25,12.74c-5.14,10.74-5.73,12.53-4.28,13,0.93,0.33,9.33,1.62,18.68,2.87s17.15,2.4,17.33,2.56S119.33,168.76,116.3,172c-1.25,1.33-1.35,1.33-.89,0C116.23,169.61,133,90.08,133,88.57c0-1.06-3.46-1.51-15.75-2.05-8.66-.38-17-1-18.44-1.36l-2.69-.66,3.86-12c11.92-37.07,15.89-50,15.5-50.35-0.24-.24-3.26.59-6.71,1.83C69,38.35,35,73.1,22.09,112.38c-4.25,13-5.09,19-5.09,36.18,0,28.73,5.57,47.21,19.13,63.5C51,229.94,83.91,242.82,105,239c7.92-1.42,14.29-4.24,26-11.5,4.93-3.05,9-5.3,9-5,0,1.54-39.56,96.23-40.82,97.72C97.34,322.41,91.7,322.55,89.64,320.49Z" transform="translate(-3.05 -3.49)"/></svg>