<svg id="4692d4e2-8922-4c26-918e-cba71e2bbba9" data-name="Layer 1" xmlns="http://www.w3.org/2000/svg" width="40" height="40" viewBox="0 0 40 40"><defs><style>.dfc9ad57-c133-4a32-9154-f0b5415f97a7{fill-rule:evenodd;opacity:0.12;}.aba36b65-a0db-4b35-93b6-ae6d6cec16eb{fill:#fff;}</style></defs><title>icon_youtube</title><path id="6f2b2ea7-1994-41ae-9188-b764fcbb9ccc" data-name="The Sharpness" class="dfc9ad57-c133-4a32-9154-f0b5415f97a7" d="M15.87,13.95l9.48,6.33,1.33-.69Z"/><g id="81385a9e-20ac-4eed-8ab6-e16226315230" data-name="Lozenge"><path class="aba36b65-a0db-4b35-93b6-ae6d6cec16eb" d="M39.6,12S39.21,9.25,38,8a5.72,5.72,0,0,0-4-1.69c-5.6-.4-14-0.4-14-0.4h0s-8.4,0-14,.4A5.72,5.72,0,0,0,2,8C0.79,9.25.4,12,.4,12A60.49,60.49,0,0,0,0,18.48v3A60.5,60.5,0,0,0,.4,28S0.79,30.74,2,32c1.52,1.59,3.52,1.54,4.41,1.71C9.6,34,20,34.07,20,34.07s8.41,0,14-.42A5.72,5.72,0,0,0,38,32c1.2-1.21,1.59-4,1.59-4a60.59,60.59,0,0,0,.4-6.47v-3A60.58,60.58,0,0,0,39.6,12ZM15.87,25.19V13.95l10.81,5.64Z"/></g></svg>