<svg id="884c0c21-3599-4dd2-a734-54d548697469" data-name="Layer 1" xmlns="http://www.w3.org/2000/svg" width="40" height="40" viewBox="0 0 40 40"><defs><style>.\39 d5045dc-a742-4fab-9805-9859c639b63e{fill:#fff;}</style></defs><title>icon_twitter</title><path class="9d5045dc-a742-4fab-9805-9859c639b63e" d="M40,7.59a16.41,16.41,0,0,1-4.71,1.29,8.23,8.23,0,0,0,3.61-4.54,16.43,16.43,0,0,1-5.21,2,8.21,8.21,0,0,0-14,7.48A23.3,23.3,0,0,1,2.78,5.25a8.22,8.22,0,0,0,2.54,11,8.17,8.17,0,0,1-3.72-1s0,0.07,0,.1a8.21,8.21,0,0,0,6.58,8,8.23,8.23,0,0,1-3.71.14,8.21,8.21,0,0,0,7.67,5.7A16.47,16.47,0,0,1,2,32.68a16.71,16.71,0,0,1-2-.11,23.23,23.23,0,0,0,12.58,3.69c15.09,0,23.35-12.5,23.35-23.35q0-.53,0-1.06A16.68,16.68,0,0,0,40,7.59Z"/></svg>