<svg id="5c21211d-4dc9-4965-8d51-04441e91bf36" data-name="Layer 2" xmlns="http://www.w3.org/2000/svg" viewBox="0 0 381 250"><defs><style>.\34 55a18ce-a4e0-4d63-8996-10518df314dd{fill:#fff;}</style></defs><title>logo_white_vertical</title><path id="9b762e23-7468-4433-9df0-abb4b7beb6f8" data-name="path3049" class="455a18ce-a4e0-4d63-8996-10518df314dd" d="M147,181.5a5.73,5.73,0,0,1-1.2-1.94c-0.22-.68,2.36-7.63,7-18.93,4.06-9.82,7.31-17.91,7.24-18a32.14,32.14,0,0,0-4.37.4c-14.22,1.82-32.58-5.09-43.26-16.28-4.58-4.8-5.59-6.23-8.43-11.93a57.88,57.88,0,0,1-5.5-18.24c-1-6.47-1.11-19.85-.26-25.26,1.37-8.67,6.21-20.85,11.73-29.49,11.42-17.89,29.46-31.92,48.43-37.69C162.84,2.81,173,.69,173.34,1c0.13,0.13-2.51,8.83-5.85,19.33S161.54,39.7,161.7,40s4.66,0.67,10,.9c7.23,0.31,9.69.6,9.69,1.14s-1,5.54-2.29,11.44S176.87,64.36,177,64.61s5.6-6.51,12.26-15C197.45,39,201.1,34,200.6,33.71a79.54,79.54,0,0,0-8.7-1.4c-4.38-.56-8.21-1.23-8.5-1.48-0.44-.39,12-27.68,13.34-29.14s29,4.77,38.34,8.49c19.82,7.89,33.13,19.47,39.31,34.2,4.45,10.6,6,22.08,4.12,30.93a39.41,39.41,0,0,1-24.75,28.39c-7.2,2.76-13.93,3.61-30,3.76-8.75.09-15,.39-16.29,0.79-4.26,1.36-6.56,3.68-9.39,9.5s-4.1,7-6.78,5.94c-2.39-.91-2.82-3.11-1.37-7.09,2.63-7.24,7.69-12.95,13.35-15.07,4.4-1.65,11.28-2.34,19.22-1.95,8.23,0.41,19.15-.53,25-2.15C259,94.26,267.65,85.8,270.49,74.91c2-7.71.34-20-3.91-28.92-8.45-17.66-29.32-29.89-60.34-35.34A31.54,31.54,0,0,0,201.5,10c-0.09.09-1.69,3.35-3.56,7.25-2.93,6.11-3.26,7.13-2.43,7.43,0.53,0.19,5.32.92,10.64,1.63s9.76,1.37,9.87,1.46S163.91,95.1,162.19,96.95c-0.71.76-.77,0.76-0.51,0,0.47-1.36,10-46.64,10-47.5,0-.61-2-0.86-9-1.17-4.93-.22-9.66-0.56-10.5-0.77l-1.53-.38,2.2-6.83c6.79-21.11,9-28.45,8.83-28.67a13.49,13.49,0,0,0-3.82,1c-22.62,8.18-42,28-49.36,50.33-2.42,7.38-2.9,10.8-2.9,20.6,0,16.36,3.17,26.88,10.89,36.16,8.47,10.18,27.21,17.52,39.22,15.36,4.51-.81,8.14-2.41,14.82-6.55a31.38,31.38,0,0,1,5.11-2.85c0,0.88-22.52,54.79-23.24,55.64C151.39,182.59,148.18,182.67,147,181.5Z"/><path class="455a18ce-a4e0-4d63-8996-10518df314dd" d="M1.45,202.92H7.81l16.58,38.17L41,202.92h6v45.5H42.77v-40.1H42.64l-17.35,40.1H23.43L5.82,208.32H5.69v40.1H1.45v-45.5Z"/><path class="455a18ce-a4e0-4d63-8996-10518df314dd" d="M59,202.92h4.24v45.5H59v-45.5Z"/><path class="455a18ce-a4e0-4d63-8996-10518df314dd" d="M75.73,202.92H81.2l27.7,39.84H109V202.92h4.24v45.5H107.8L80.1,208.58H80v39.84H75.73v-45.5Z"/><path class="455a18ce-a4e0-4d63-8996-10518df314dd" d="M125.15,202.92h14.07a30.42,30.42,0,0,1,10,1.45,22.32,22.32,0,0,1,6.84,3.7,18.37,18.37,0,0,1,4.31,5,24.33,24.33,0,0,1,3.25,9.77q0.19,2,.19,2.86t-0.19,2.86a24.33,24.33,0,0,1-3.25,9.77,18.34,18.34,0,0,1-4.31,5,22.29,22.29,0,0,1-6.84,3.69,30.42,30.42,0,0,1-10,1.45H125.15v-45.5Zm4.24,41.64h8.74a30.4,30.4,0,0,0,8.42-1.12,19.27,19.27,0,0,0,6.81-3.44,16.21,16.21,0,0,0,4.56-5.88,22.2,22.2,0,0,0,0-16.9,16.19,16.19,0,0,0-4.56-5.88,19.29,19.29,0,0,0-6.81-3.44,30.43,30.43,0,0,0-8.42-1.12h-8.74v37.79Z"/><path class="455a18ce-a4e0-4d63-8996-10518df314dd" d="M210.81,241.28a19.27,19.27,0,0,1-7.58,6.36,22.54,22.54,0,0,1-9.32,1.93,25.07,25.07,0,0,1-9.54-1.77,21.5,21.5,0,0,1-7.42-4.95,22.72,22.72,0,0,1-4.82-7.58,27.38,27.38,0,0,1,0-19.18,22.81,22.81,0,0,1,4.82-7.55,21.88,21.88,0,0,1,7.42-5,24.67,24.67,0,0,1,9.54-1.8,22.67,22.67,0,0,1,8.64,1.64,17.17,17.17,0,0,1,7,5.49l-3.47,2.89a12.58,12.58,0,0,0-5.43-4.69,16.47,16.47,0,0,0-6.78-1.48,20,20,0,0,0-8,1.54,17.82,17.82,0,0,0-6.07,4.24,18.77,18.77,0,0,0-3.86,6.36,23.83,23.83,0,0,0,0,15.81,18.77,18.77,0,0,0,3.86,6.36,17.83,17.83,0,0,0,6.07,4.24,20,20,0,0,0,8,1.54,16.68,16.68,0,0,0,7.23-1.7,17.41,17.41,0,0,0,3.37-2.18,14,14,0,0,0,2.83-3.18Z"/><path class="455a18ce-a4e0-4d63-8996-10518df314dd" d="M218.58,202.92h12q0.9,0,2.44.06a25.09,25.09,0,0,1,3.34.38,20.61,20.61,0,0,1,3.66,1,10.38,10.38,0,0,1,3.34,2.06,10.68,10.68,0,0,1,2.44,3.41,11.76,11.76,0,0,1,1,5,11.47,11.47,0,0,1-1.12,5.4,10.48,10.48,0,0,1-2.83,3.44,11.89,11.89,0,0,1-3.76,2,24.26,24.26,0,0,1-3.92.9l13.24,21.85h-4.82l-12.79-21.59h-7.9v21.59h-4.24v-45.5Zm4.24,20h9a14.84,14.84,0,0,0,5.43-.83,9,9,0,0,0,3.25-2.06,6.51,6.51,0,0,0,1.57-2.63,8.12,8.12,0,0,0,0-5.14,6.52,6.52,0,0,0-1.57-2.63,9,9,0,0,0-3.25-2.06,14.86,14.86,0,0,0-5.43-.83h-9V223Z"/><path class="455a18ce-a4e0-4d63-8996-10518df314dd" d="M270.63,202.92H275l19.15,45.5H289.4l-4.95-12.08h-24.1l-5.14,12.08h-4.43Zm2,4.63L262,232.48h20.89Z"/><path class="455a18ce-a4e0-4d63-8996-10518df314dd" d="M338.17,241.28a19.28,19.28,0,0,1-7.58,6.36,22.54,22.54,0,0,1-9.32,1.93,25.07,25.07,0,0,1-9.54-1.77,21.49,21.49,0,0,1-7.42-4.95,22.7,22.7,0,0,1-4.82-7.58,27.37,27.37,0,0,1,0-19.18,22.8,22.8,0,0,1,4.82-7.55,21.87,21.87,0,0,1,7.42-5,24.67,24.67,0,0,1,9.54-1.8,22.67,22.67,0,0,1,8.64,1.64,17.17,17.17,0,0,1,7,5.49l-3.47,2.89A12.59,12.59,0,0,0,328,207.1a16.47,16.47,0,0,0-6.78-1.48,20,20,0,0,0-8,1.54,17.82,17.82,0,0,0-6.07,4.24,18.76,18.76,0,0,0-3.86,6.36,23.82,23.82,0,0,0,0,15.81,18.76,18.76,0,0,0,3.86,6.36,17.83,17.83,0,0,0,6.07,4.24,20,20,0,0,0,8,1.54,16.68,16.68,0,0,0,7.23-1.7,17.41,17.41,0,0,0,3.37-2.18,14,14,0,0,0,2.83-3.18Z"/><path class="455a18ce-a4e0-4d63-8996-10518df314dd" d="M345.95,202.92h4.24v20h0.39l22-20h5.85l-23,20.82,24.29,24.68h-6.1L350.57,224.9h-0.39v23.52h-4.24v-45.5Z"/></svg>