<svg xmlns="http://www.w3.org/2000/svg" viewBox="0 0 560 138"><title>logo_header</title><path d="M38,136.37a4.3,4.3,0,0,1-.9-1.45c-0.16-.51,1.77-5.72,5.28-14.19,3-7.36,5.49-13.43,5.43-13.49a24.1,24.1,0,0,0-3.28.3c-10.66,1.37-24.44-3.82-32.44-12.21a27.72,27.72,0,0,1-6.32-8.95A43.41,43.41,0,0,1,1.62,72.69a88,88,0,0,1-.2-19c1-6.5,4.66-15.64,8.8-22.12C18.79,18.21,32.31,7.69,46.54,3.36,49.85,2.36,57.47.77,57.73,1c0.1,0.1-1.88,6.62-4.39,14.5S48.87,30,49,30.22s3.49,0.5,7.49.68c5.42,0.23,7.26.45,7.26,0.85S63,35.91,62,40.33a83.6,83.6,0,0,0-1.6,8.38c0.06,0.19,4.2-4.88,9.2-11.27,6.18-7.9,8.91-11.71,8.54-11.91a59.66,59.66,0,0,0-6.52-1,40.67,40.67,0,0,1-6.37-1.11c-0.33-.29,9-20.76,10-21.85S97,5.09,104,7.89c14.86,5.92,24.85,14.61,29.48,25.65,3.34,8,4.48,16.56,3.09,23.19A29.56,29.56,0,0,1,118,78c-5.4,2.07-10.45,2.7-22.48,2.82-6.56.06-11.27,0.29-12.22,0.59-3.2,1-4.92,2.76-7,7.13S73.23,93.79,71.22,93c-1.79-.68-2.11-2.33-1-5.32,2-5.43,5.77-9.71,10-11.3,3.3-1.23,8.46-1.76,14.42-1.46,6.17,0.31,14.36-.4,18.76-1.61a24,24,0,0,0,17.21-16.9c1.51-5.78.26-15-2.93-21.69-6.34-13.25-22-22.41-45.25-26.51a23.65,23.65,0,0,0-3.55-.48c-0.07.07-1.27,2.52-2.67,5.44-2.2,4.59-2.45,5.35-1.83,5.57,0.4,0.14,4,.69,8,1.23s7.32,1,7.4,1.09S50.66,71.58,49.36,73c-0.53.57-.58,0.57-0.38,0,0.35-1,7.51-35,7.51-35.63,0-.45-1.48-0.65-6.73-0.88-3.7-.16-7.24-0.42-7.87-0.58l-1.15-.28,1.65-5.12C47.48,14.64,49.18,9.14,49,9a10.12,10.12,0,0,0-2.86.78c-17,6.13-31.52,21-37,37.75C7.32,53,7,55.6,7,63c0,12.27,2.38,20.16,8.17,27.12,6.36,7.64,20.4,13.14,29.41,11.52,3.38-.61,6.1-1.81,11.12-4.91a23.53,23.53,0,0,1,3.83-2.14c0,0.66-16.89,41.1-17.43,41.73A3.41,3.41,0,0,1,38,136.37Z" style="fill:#4f93b1"/><path d="M157.13,30.76h6.74l17.58,40.47L199,30.76h6.4V79h-4.5V36.49h-0.1L182.41,79h-2L161.76,36.49h-0.14V79h-4.5V30.76h0Zm61.05,0h4.5V79h-4.5V30.76Zm17.71,0h5.79L271,73h0.14V30.76h4.5V79h-5.79L240.52,36.76h-0.14V79h-4.5V30.76h0Zm52.39,0H303.2a32.25,32.25,0,0,1,10.63,1.53,23.66,23.66,0,0,1,7.26,3.92,19.46,19.46,0,0,1,4.56,5.28,25.8,25.8,0,0,1,3.44,10.36q0.2,2.15.2,3t-0.2,3a25.8,25.8,0,0,1-3.44,10.36,19.41,19.41,0,0,1-4.56,5.28,23.61,23.61,0,0,1-7.26,3.92A32.24,32.24,0,0,1,303.2,79H288.28V30.76h0Zm4.5,44.15H302a32.2,32.2,0,0,0,9-1.19,20.42,20.42,0,0,0,7.22-3.64A17.18,17.18,0,0,0,323,63.84a21,21,0,0,0,1.77-9,21,21,0,0,0-1.77-9,17.18,17.18,0,0,0-4.84-6.23A20.44,20.44,0,0,0,311,36a32.27,32.27,0,0,0-9-1.15h-9.27V74.91h0.05Zm86.32-3.47a20.43,20.43,0,0,1-8,6.75,23.9,23.9,0,0,1-9.88,2,26.57,26.57,0,0,1-10.12-1.87,22.79,22.79,0,0,1-7.87-5.25,24.09,24.09,0,0,1-5.11-8,27.53,27.53,0,0,1-1.84-10.19,27.27,27.27,0,0,1,1.84-10.15,24.17,24.17,0,0,1,5.11-8,23.2,23.2,0,0,1,7.87-5.28,26.17,26.17,0,0,1,10.12-1.91,24,24,0,0,1,9.16,1.74,18.2,18.2,0,0,1,7.46,5.83l-3.68,3.07a13.33,13.33,0,0,0-5.76-5,17.46,17.46,0,0,0-7.19-1.57,21.16,21.16,0,0,0-8.48,1.64,18.9,18.9,0,0,0-6.44,4.5,19.89,19.89,0,0,0-4.09,6.74,25.26,25.26,0,0,0,0,16.76A19.9,19.9,0,0,0,346.26,70a18.91,18.91,0,0,0,6.44,4.5,21.17,21.17,0,0,0,8.48,1.63,17.69,17.69,0,0,0,7.67-1.81A18.49,18.49,0,0,0,372.42,72a14.83,14.83,0,0,0,3-3.37Zm8.24-40.68H400q1,0,2.59.07a26.69,26.69,0,0,1,3.54.41A21.85,21.85,0,0,1,410,32.33a11,11,0,0,1,3.54,2.18,11.34,11.34,0,0,1,2.59,3.61,12.46,12.46,0,0,1,1,5.31A12.15,12.15,0,0,1,416,49.16a11.1,11.1,0,0,1-3,3.65,12.6,12.6,0,0,1-4,2.08,25.75,25.75,0,0,1-4.16,1l14,23.16h-5.11L400.22,56.11h-8.38V79h-4.5V30.76h0ZM391.84,52h9.54a15.72,15.72,0,0,0,5.76-.89A9.54,9.54,0,0,0,410.57,49a6.9,6.9,0,0,0,1.67-2.79,8.6,8.6,0,0,0,0-5.45A6.92,6.92,0,0,0,410.57,38a9.56,9.56,0,0,0-3.44-2.18,15.74,15.74,0,0,0-5.76-.89h-9.54V52h0Zm50.69-21.24h4.63L467.46,79h-5l-5.25-12.81H431.63L426.17,79h-4.7Zm2.11,4.91L433.4,62.1h22.14Zm69.49,35.77a20.43,20.43,0,0,1-8,6.75,23.9,23.9,0,0,1-9.88,2,26.57,26.57,0,0,1-10.12-1.87,22.79,22.79,0,0,1-7.87-5.25,24.09,24.09,0,0,1-5.11-8,27.53,27.53,0,0,1-1.84-10.19,27.27,27.27,0,0,1,1.84-10.15,24.17,24.17,0,0,1,5.11-8,23.2,23.2,0,0,1,7.87-5.28,26.17,26.17,0,0,1,10.12-1.91,24,24,0,0,1,9.16,1.74,18.2,18.2,0,0,1,7.46,5.83l-3.68,3.07a13.33,13.33,0,0,0-5.76-5,17.46,17.46,0,0,0-7.19-1.57,21.16,21.16,0,0,0-8.48,1.64,18.9,18.9,0,0,0-6.44,4.5,19.89,19.89,0,0,0-4.09,6.74,25.26,25.26,0,0,0,0,16.76A19.9,19.9,0,0,0,481.29,70a18.91,18.91,0,0,0,6.44,4.5,21.17,21.17,0,0,0,8.48,1.63,17.69,17.69,0,0,0,7.67-1.81A18.49,18.49,0,0,0,507.45,72a14.83,14.83,0,0,0,3-3.37Zm8.24-40.68h4.5V52h0.41l23.37-21.26h6.2l-24.39,22.1L558.21,79h-6.47L527.28,54.06h-0.41V79h-4.5V30.76h0Z" style="fill:#e8e8e8"/></svg>