<svg id="850cec14-4863-4a83-bc54-6257383425e0" data-name="Layer 1" xmlns="http://www.w3.org/2000/svg" viewBox="0 0 356 83"><defs><style>.\39 d354c3a-a9d6-472d-910c-86b765a16180{fill:#4f93b1;}.\36 dfa486c-a355-4a09-82d8-f979ba6320c1{fill:#999898;}</style></defs><title>logo_footer</title><path id="65e2c943-50d8-475f-8f41-8850daef6625" data-name="path3049" class="9d354c3a-a9d6-472d-910c-86b765a16180" d="M23,81.63a2.56,2.56,0,0,1-.54-0.87c-0.1-.31,1.06-3.41,3.14-8.45,1.81-4.38,3.27-8,3.23-8a14.36,14.36,0,0,0-2,.18c-6.35.81-14.55-2.27-19.32-7.27a16.51,16.51,0,0,1-3.76-5.33A25.85,25.85,0,0,1,1.37,43.7a52.4,52.4,0,0,1-.12-11.29A39,39,0,0,1,6.49,19.24,40.64,40.64,0,0,1,28.12,2.41,40.28,40.28,0,0,1,34.79,1C34.84,1.07,33.67,5,32.17,9.65s-2.66,8.63-2.58,8.75a25.45,25.45,0,0,0,4.46.4c3.23,0.14,4.33.27,4.33,0.51s-0.46,2.48-1,5.11-1,4.88-1,5,2.5-2.91,5.48-6.71c3.68-4.71,5.31-7,5.09-7.09A35.53,35.53,0,0,0,43.08,15a24.22,24.22,0,0,1-3.79-.66c-0.2-.17,5.38-12.36,6-13S58.18,3.44,62.37,5.1c8.85,3.52,14.8,8.7,17.56,15.28,2,4.74,2.67,9.86,1.84,13.81A17.6,17.6,0,0,1,70.71,46.88c-3.22,1.23-6.22,1.61-13.39,1.68a51.45,51.45,0,0,0-7.28.35c-1.9.61-2.93,1.64-4.2,4.25s-1.83,3.11-3,2.65-1.26-1.39-.61-3.17c1.18-3.23,3.44-5.78,6-6.73A23.09,23.09,0,0,1,56.76,45a42.07,42.07,0,0,0,11.17-1A14.28,14.28,0,0,0,78.18,34c0.9-3.44.15-8.94-1.75-12.92-3.77-7.89-13.09-13.35-27-15.79A14.09,14.09,0,0,0,47.36,5s-0.76,1.5-1.59,3.24c-1.31,2.73-1.46,3.19-1.09,3.32s2.37,0.41,4.75.73,4.36,0.61,4.41.65S30.58,43,29.8,43.86c-0.32.34-.34,0.34-0.23,0,0.21-.61,4.47-20.84,4.47-21.22s-0.88-.39-4-0.52c-2.2-.1-4.31-0.25-4.69-0.34l-0.68-.17,1-3.05c3-9.43,4-12.71,3.94-12.81a6,6,0,0,0-1.71.47,37.23,37.23,0,0,0-22,22.48C4.76,32,4.55,33.52,4.55,37.9,4.55,45.2,6,49.9,9.41,54c3.78,4.55,12.15,7.83,17.52,6.86,2-.36,3.63-1.08,6.62-2.92a14,14,0,0,1,2.28-1.27c0,0.39-10.06,24.48-10.38,24.85A2,2,0,0,1,23,81.63Z"/><path class="6dfa486c-a355-4a09-82d8-f979ba6320c1" d="M97.42,19.42h4.31L113,44.92l11.23-25.5h4.09V49.81h-2.87V23h-0.09L113.57,49.81h-1.26L100.38,23h-0.09V49.81H97.42V19.42Z"/><path class="6dfa486c-a355-4a09-82d8-f979ba6320c1" d="M136.43,19.42h2.87V49.81h-2.87V19.42Z"/><path class="6dfa486c-a355-4a09-82d8-f979ba6320c1" d="M147.75,19.42h3.7L170.21,46h0.09V19.42h2.87V49.81h-3.7L150.71,23.2h-0.09V49.81h-2.87V19.42Z"/><path class="6dfa486c-a355-4a09-82d8-f979ba6320c1" d="M181.23,19.42h9.54a20.9,20.9,0,0,1,6.79,1,15.2,15.2,0,0,1,4.64,2.47,12.33,12.33,0,0,1,2.92,3.33,16.09,16.09,0,0,1,2.2,6.52q0.13,1.35.13,1.91t-0.13,1.91a16.08,16.08,0,0,1-2.2,6.52,12.32,12.32,0,0,1-2.92,3.33,15.18,15.18,0,0,1-4.64,2.47,20.89,20.89,0,0,1-6.79,1h-9.54V19.42Zm2.87,27.81H190a20.87,20.87,0,0,0,5.7-.75,13.13,13.13,0,0,0,4.62-2.3,10.84,10.84,0,0,0,3.09-3.93,13,13,0,0,0,1.13-5.64A13,13,0,0,0,203.43,29,10.83,10.83,0,0,0,200.34,25a13.14,13.14,0,0,0-4.62-2.3A20.91,20.91,0,0,0,190,22H184.1V47.23Z"/><path class="6dfa486c-a355-4a09-82d8-f979ba6320c1" d="M239.26,45a13,13,0,0,1-5.14,4.25,15.45,15.45,0,0,1-6.31,1.29,17.19,17.19,0,0,1-6.47-1.18,14.57,14.57,0,0,1-5-3.3A15.16,15.16,0,0,1,213.05,41a17.14,17.14,0,0,1-1.17-6.42,17,17,0,0,1,1.17-6.4,15.2,15.2,0,0,1,3.27-5,14.84,14.84,0,0,1,5-3.33,16.94,16.94,0,0,1,6.47-1.2,15.54,15.54,0,0,1,5.86,1.09,11.61,11.61,0,0,1,4.77,3.67l-2.35,1.93a8.49,8.49,0,0,0-3.68-3.13,11.29,11.29,0,0,0-4.59-1,13.7,13.7,0,0,0-5.42,1,12.1,12.1,0,0,0-4.11,2.83,12.53,12.53,0,0,0-2.61,4.25,15.71,15.71,0,0,0,0,10.56,12.52,12.52,0,0,0,2.61,4.25A12.09,12.09,0,0,0,222.39,47a13.7,13.7,0,0,0,5.42,1,11.27,11.27,0,0,0,2.44-.28,11.14,11.14,0,0,0,2.46-.86A11.79,11.79,0,0,0,235,45.41a9.4,9.4,0,0,0,1.92-2.12Z"/><path class="6dfa486c-a355-4a09-82d8-f979ba6320c1" d="M244.53,19.42h8.1q0.61,0,1.65,0a17.23,17.23,0,0,1,2.26.26,14.14,14.14,0,0,1,2.48.69,7.06,7.06,0,0,1,2.26,1.37,7.14,7.14,0,0,1,1.65,2.27,7.76,7.76,0,0,1,.65,3.35,7.58,7.58,0,0,1-.76,3.61,7,7,0,0,1-1.92,2.3,8.09,8.09,0,0,1-2.55,1.31,16.63,16.63,0,0,1-2.66.6l9,14.59h-3.26l-8.66-14.42h-5.36V49.81h-2.87V19.42Zm2.87,13.39h6.1a10.17,10.17,0,0,0,3.68-.56,6.11,6.11,0,0,0,2.2-1.37,4.32,4.32,0,0,0,1.07-1.76,5.35,5.35,0,0,0,0-3.43,4.34,4.34,0,0,0-1.07-1.76,6.12,6.12,0,0,0-2.2-1.37A10.19,10.19,0,0,0,253.5,22h-6.1V32.81Z"/><path class="6dfa486c-a355-4a09-82d8-f979ba6320c1" d="M279.8,19.42h3l13,30.39h-3.22l-3.35-8.07H272.83l-3.48,8.07h-3Zm1.35,3.09L274,39.16h14.15Z"/><path class="6dfa486c-a355-4a09-82d8-f979ba6320c1" d="M325.55,45a13,13,0,0,1-5.14,4.25,15.45,15.45,0,0,1-6.31,1.29,17.19,17.19,0,0,1-6.47-1.18,14.57,14.57,0,0,1-5-3.3A15.16,15.16,0,0,1,299.34,41a17.14,17.14,0,0,1-1.17-6.42,17,17,0,0,1,1.17-6.4,15.2,15.2,0,0,1,3.27-5,14.84,14.84,0,0,1,5-3.33,16.94,16.94,0,0,1,6.47-1.2A15.54,15.54,0,0,1,320,19.74a11.61,11.61,0,0,1,4.77,3.67l-2.35,1.93a8.49,8.49,0,0,0-3.68-3.13,11.29,11.29,0,0,0-4.59-1,13.7,13.7,0,0,0-5.42,1,12.1,12.1,0,0,0-4.11,2.83A12.53,12.53,0,0,0,302,29.33a15.71,15.71,0,0,0,0,10.56,12.52,12.52,0,0,0,2.61,4.25A12.09,12.09,0,0,0,308.68,47a13.7,13.7,0,0,0,5.42,1,11.27,11.27,0,0,0,2.44-.28,11.14,11.14,0,0,0,2.46-.86,11.79,11.79,0,0,0,2.29-1.46,9.4,9.4,0,0,0,1.92-2.12Z"/><path class="6dfa486c-a355-4a09-82d8-f979ba6320c1" d="M330.82,19.42h2.87V32.81H334l14.93-13.39h4L337.27,33.33l16.46,16.48h-4.14L334,34.1H333.7V49.81h-2.87V19.42Z"/></svg>